# xmcd CD database file
#
# Track frame offsets:
#	150
#	13325
#	27665
#	35502
#	47282
#	62712
#	67457
#	87607
#	102635
#	109700
#	117085
#	130547
#	138677
#	151255
#	158047
#	167627
#	179520
#
# Disc length: 2616 seconds
#
# Revision: 8
# Processed by: cddbd v1.5.2PL0 Copyright (c) Steve Scherf et al.
# Submitted via: CDex 1.70beta2
#
DISCID=f20a3611
DTITLE=Hymnen - Sampler - Hymnen (Dem Morgenrot entgegen)
DYEAR=1995
DGENRE=Hymne
TTITLE0=Rundfunk-Solistenvereinigung Berlin - Nationalhymne der DDR
TTITLE1=Grosses Rundfunkorchester Berlin - Nationalhymne der DDR (Instrumental)
TTITLE2=Grosses Rundfunkorchester Leipzig - Kinderhymne (Anmut sparet nicht)
TTITLE3=Harmonie-Orchester - Marseillaise
TTITLE4=Chor and Orchester des Staatlichen Akademischen Grossen Theaters - Nationalhymne der Sowjetunion
TTITLE5=Orchester des Wachregiments Feliks Dzierzynsky Berlin - Nationalhymne der Sowjetunion (Instrumental)
TTITLE6=Zentrales Ensemble der Westgruppe der sowjetischen Streitkräfte in Deutschland - Rodina moja (Meine Heimat)
TTITLE7=Alexandrow-Ensemble der Sowjetarmee - Swjaschtschennaja Woina (Der heilige Krieg)
TTITLE8=Grosses Rundfunkorchester Berlin - Brüder, zur Sonne, zur Freiheit
TTITLE9=Zentrales Orchester des Ministeriums des Innern - Brüder, seht die rote Fahne
TTITLE10=Orchester des Wachregiments Feliks Dzierzynsky Berlin - Warschawjanka
TTITLE11=Rundfunk-Blasorchester Leipzig - Bandiera rossa
TTITLE12=Chor and Orchester des Wachregiments Feliks Dzierzynsky Berlin - Dem Morgenrot entgegen
TTITLE13=Rundfunk-Blasorchester Leipzig - Wir sind die erste Reihe
TTITLE14=Rundfunkchor Berlin - Unsterbliche Opfer
TTITLE15=Harmonie-Orchester - Die Internationale (Instrumental)
TTITLE16=Grosses Rundfunkorchester Berlin - Die Internationale
EXTD=YEAR: 1995
EXTT0=
EXTT1=
EXTT2=
EXTT3=
EXTT4=
EXTT5=
EXTT6=
EXTT7=
EXTT8=
EXTT9=
EXTT10=
EXTT11=
EXTT12=
EXTT13=
EXTT14=
EXTT15=
EXTT16=
PLAYORDER=
